<svg width="20" height="20" viewBox="0 0 20 20" version="1.1" xmlns="http://www.w3.org/2000/svg" xmlns:xlink="http://www.w3.org/1999/xlink">
<title>profile</title>
<desc>Created using Figma</desc>
<g id="Canvas" transform="translate(-9445 2337)">
<g id="profile">
<g id="Vector">
<use xlink:href="#path0_fill" transform="translate(9445 -2325.37)"/>
</g>
<g id="Vector">
<use xlink:href="#path1_fill" transform="translate(9449.61 -2337)"/>
</g>
</g>
</g>
<defs>
<path id="path0_fill" d="M 0.706068 7.42201L 19.2939 7.42201C 19.688 7.42201 20 7.11002 20 6.71594C 20 3.02135 16.9951 -1.81991e-07 13.2841 -1.81991e-07L 6.71594 -1.81991e-07C 3.02135 -1.81991e-07 0 3.00492 0 6.71594C 0 7.11002 0.311982 7.42201 0.706068 7.42201ZM 6.71594 1.41214L 13.2841 1.41214C 15.977 1.41214 18.1937 3.41544 18.5386 6.00983L 1.46141 6.00983C 1.80622 3.43187 4.023 1.41214 6.71594 1.41214Z"/>
<path id="path1_fill" d="M 5.35303 10.6897C 8.30872 10.6897 10.7061 8.29228 10.7061 5.33664C 10.7061 2.38099 8.30868 -1.3541e-09 5.35303 -1.3541e-09C 2.39739 -1.3541e-09 -1.73325e-08 2.39739 -1.73325e-08 5.33664C -1.73325e-08 8.27588 2.39735 10.6897 5.35303 10.6897ZM 5.35303 1.39574C 7.52051 1.39574 9.29393 3.16913 9.29393 5.33664C 9.29393 7.50414 7.52051 9.2775 5.35303 9.2775C 3.18556 9.2775 1.41214 7.50411 1.41214 5.3366C 1.41214 3.16909 3.18552 1.39574 5.35303 1.39574Z"/>
</defs>
</svg>
