<svg width="18" height="18" viewBox="0 0 18 18" version="1.1" xmlns="http://www.w3.org/2000/svg" xmlns:xlink="http://www.w3.org/1999/xlink">
<title>instagram</title>
<desc>Created using Figma</desc>
<g id="Canvas" transform="translate(-9452 1357)">
<g id="instagram">
<g id="Fill-1">
<use xlink:href="#path0_fill" transform="translate(9452 -1357)"/>
</g>
</g>
</g>
<defs>
<path id="path0_fill" fill-rule="evenodd" d="M 16 5C 16 5.27612 15.7761 5.5 15.5 5.5L 13 5.5C 12.7239 5.5 12.5 5.27612 12.5 5L 12.5 2.5C 12.5 2.22388 12.7239 2 13 2L 15.5 2C 15.7761 2 16 2.22388 16 2.5L 16 5ZM 16 15.5C 16 15.7761 15.7761 16 15.5 16L 2.5 16C 2.22388 16 2 15.7761 2 15.5L 2 7.5L 3.70712 7.5C 3.57225 7.97681 3.5 8.48 3.5 9C 3.5 12.0376 5.96244 14.5 9 14.5C 12.0376 14.5 14.5 12.0376 14.5 9C 14.5 8.48 14.4278 7.97681 14.2929 7.5L 16 7.5L 16 15.5ZM 9 5.5C 10.933 5.5 12.5 7.067 12.5 9C 12.5 10.933 10.933 12.5 9 12.5C 7.067 12.5 5.5 10.933 5.5 9C 5.5 7.067 7.067 5.5 9 5.5ZM 15.5 0L 2.5 0C 1.11931 0 0 1.11931 0 2.5L 0 15.5C 0 16.8807 1.11931 18 2.5 18L 15.5 18C 16.8807 18 18 16.8807 18 15.5L 18 2.5C 18 1.11931 16.8807 0 15.5 0Z"/>
</defs>
</svg>
