<svg width="16" height="10" viewBox="0 0 16 10" version="1.1" xmlns="http://www.w3.org/2000/svg" xmlns:xlink="http://www.w3.org/1999/xlink">
<title>icon</title>
<desc>Created using Figma</desc>
<g id="Canvas" transform="translate(-9445 1297)">
<g id="icon">
<g id="Group">
<g id="Vector">
<use xlink:href="#path0_fill" transform="translate(9445 -1297)" fill="#FFFFFF"/>
</g>
</g>
</g>
</g>
<defs>
<path id="path0_fill" d="M 0.277093 9.99415C 0.115155 9.96084 0 9.8229 0 9.66509C 0 4.20017 6.65742 3.03704 8.20182 2.84066L 8.20182 0.333806C 8.20182 0.21048 8.27199 0.0965059 8.38535 0.0392265C 8.49811 -0.0192219 8.63305 -0.0110391 8.73801 0.0550075L 15.8501 4.72153C 15.9436 4.7829 16 4.88577 16 5.00033C 16 5.11079 15.9436 5.21366 15.8501 5.27679L 8.74041 9.94272C 8.63485 10.0099 8.49931 10.0169 8.38655 9.95967C 8.27379 9.90122 8.20482 9.78608 8.20482 9.66392L 8.20482 6.96536C 7.08505 6.97354 6.16021 7.02264 5.38831 7.11265C 1.69015 7.53874 0.702328 9.70308 0.660344 9.79543C 0.604566 9.91993 0.479214 10 0.344866 10C 0.322675 9.99942 0.298084 9.99825 0.277093 9.99415Z"/>
</defs>
</svg>
