<svg width="23" height="18" viewBox="0 0 23 18" version="1.1" xmlns="http://www.w3.org/2000/svg" xmlns:xlink="http://www.w3.org/1999/xlink">
<title>twitter</title>
<desc>Created using Figma</desc>
<g id="Canvas" transform="translate(-9350 1357)">
<g id="twitter">
<mask id="mask0_alpha" mask-type="alpha">
<g id="mask-2">
<g id="Vector">
<use xlink:href="#path0_fill" transform="translate(9350 -1356.93)" fill="#FFFFFF"/>
</g>
</g>
</mask>
<g id="Fill-1" mask="url(#mask0_alpha)">
<use xlink:href="#path1_fill" transform="translate(9350 -1356.93)"/>
</g>
</g>
</g>
<defs>
<path id="path0_fill" d="M -1.12984e-10 17.9288L 22.0625 17.9288L 22.0625 -1.20092e-09L -1.12984e-10 -1.20092e-09L -1.12984e-10 17.9288Z"/>
<path id="path1_fill" fill-rule="evenodd" d="M 22.0674 2.12295C 21.2554 2.48303 20.3829 2.72639 19.467 2.83585C 20.4018 2.27551 21.1196 1.38826 21.4577 0.331103C 20.583 0.849874 19.614 1.22666 18.5828 1.42975C 17.7569 0.549848 16.5803 -1.20092e-09 15.2781 -1.20092e-09C 12.7777 -1.20092e-09 10.7506 2.02706 10.7506 4.52728C 10.7506 4.88212 10.7907 5.22767 10.8679 5.55901C 7.10516 5.37021 3.76918 3.56779 1.53622 0.828726C 1.14651 1.49739 0.923247 2.2751 0.923247 3.1048C 0.923247 4.67548 1.72259 6.06124 2.93739 6.87309C 2.19519 6.84961 1.49715 6.64596 0.886682 6.30686C 0.886359 6.32575 0.886359 6.34472 0.886359 6.36377C 0.886359 8.55735 2.44695 10.3872 4.51808 10.8031C 4.13814 10.9065 3.73819 10.9618 3.32524 10.9618C 3.03352 10.9618 2.74988 10.9335 2.47351 10.8806C 3.04959 12.6793 4.72157 13.9883 6.7027 14.0248C 5.15325 15.2391 3.20109 15.9629 1.08 15.9629C 0.714592 15.9629 0.354188 15.9415 0 15.8996C 2.00357 17.1842 4.38336 17.9337 6.94009 17.9337C 15.2676 17.9337 19.8213 11.035 19.8213 5.05227C 19.8213 4.85596 19.8169 4.66071 19.8082 4.46658C 20.6927 3.82827 21.4604 3.03086 22.0674 2.12295Z"/>
</defs>
</svg>
