<svg width="22" height="22" viewBox="0 0 22 22" version="1.1" xmlns="http://www.w3.org/2000/svg" xmlns:xlink="http://www.w3.org/1999/xlink">
<title>calendar-with-a-clock-time-tools</title>
<desc>Created using Figma</desc>
<g id="Canvas" transform="translate(-9364 2337)">
<g id="calendar-with-a-clock-time-tools">
<g id="Group">
<g id="Vector">
<use xlink:href="#path0_fill" transform="translate(9364 -2337)"/>
</g>
</g>
</g>
</g>
<defs>
<path id="path0_fill" d="M 2.74998 3.43757L 2.74998 0.687504C 2.74998 0.307457 3.05744 0 3.43758 0C 3.81754 0 4.125 0.307457 4.125 0.687504L 4.125 3.43757C 4.125 3.81752 3.81754 4.12498 3.43758 4.12498C 3.05744 4.12503 2.74998 3.81752 2.74998 3.43757ZM 14.4376 4.12503C 14.8175 4.12503 15.1252 3.81757 15.1252 3.43761L 15.1252 0.687504C 15.1252 0.307457 14.8175 0 14.4376 0C 14.0576 0 13.7499 0.307457 13.7499 0.687504L 13.7499 3.43757C 13.7499 3.81752 14.0576 4.12503 14.4376 4.12503ZM 22 16.4998C 22 19.5375 19.5374 22 16.5 22C 13.4628 22 11 19.5375 11 16.4998C 11 13.4626 13.4627 11 16.5 11C 19.5374 11 22 13.4626 22 16.4998ZM 20.6252 16.4998C 20.6252 14.2255 18.7748 12.3749 16.5 12.3749C 14.2255 12.3749 12.3751 14.2254 12.3751 16.4998C 12.3751 18.7746 14.2255 20.6249 16.5 20.6249C 18.7748 20.6249 20.6252 18.7746 20.6252 16.4998ZM 5.50006 8.25001L 2.74998 8.25001L 2.74998 11L 5.50006 11L 5.50006 8.25001ZM 2.74998 15.125L 5.50006 15.125L 5.50006 12.3749L 2.74998 12.3749L 2.74998 15.125ZM 6.87498 11L 9.6251 11L 9.6251 8.25001L 6.87498 8.25001L 6.87498 11ZM 6.87498 15.125L 9.6251 15.125L 9.6251 12.3749L 6.87498 12.3749L 6.87498 15.125ZM 1.37506 16.3631L 1.37506 6.87495L 16.5 6.87495L 16.5 9.62501L 17.8751 9.62501L 17.8751 4.26205C 17.8751 3.42682 17.2089 2.74997 16.386 2.74997L 15.8125 2.74997L 15.8125 3.43761C 15.8125 4.19485 15.1961 4.81257 14.4377 4.81257C 13.6791 4.81257 13.0627 4.19485 13.0627 3.43761L 13.0627 2.74997L 4.81246 2.74997L 4.81246 3.43761C 4.81246 4.19485 4.19614 4.81257 3.43763 4.81257C 2.67893 4.81257 2.06257 4.19485 2.06257 3.43761L 2.06257 2.74997L 1.48982 2.74997C 0.666786 2.74997 2.15359e-12 3.42682 2.15359e-12 4.26205L 2.15359e-12 16.3632C 2.15359e-12 17.1956 0.666786 17.8751 1.48982 17.8751L 9.6251 17.8751L 9.6251 16.4999L 1.48982 16.4999C 1.42752 16.4998 1.37506 16.4355 1.37506 16.3631ZM 13.7499 11L 13.7499 8.25001L 11.0001 8.25001L 11.0001 11L 13.7499 11ZM 18.5626 16.4998L 16.5 16.4998L 16.5 14.4373C 16.5 14.0575 16.1925 13.75 15.8125 13.75C 15.4324 13.75 15.1252 14.0575 15.1252 14.4373L 15.1252 17.1876C 15.1252 17.5674 15.4324 17.8751 15.8125 17.8751L 18.5626 17.8751C 18.9426 17.8751 19.2501 17.5674 19.2501 17.1876C 19.2501 16.8075 18.9426 16.4998 18.5626 16.4998Z"/>
</defs>
</svg>
